<?xml version="1.0" encoding="iso-8859-1"?>
<!-- Generator: Adobe Illustrator 16.0.0, SVG Export Plug-In . SVG Version: 6.00 Build 0)  -->
<!DOCTYPE svg PUBLIC "-//W3C//DTD SVG 1.1//EN" "http://www.w3.org/Graphics/SVG/1.1/DTD/svg11.dtd">
<svg version="1.1" id="Capa_1" xmlns="http://www.w3.org/2000/svg" xmlns:xlink="http://www.w3.org/1999/xlink" x="0px" y="0px"
	 width="110.936px" height="110.936px" viewBox="0 0 110.936 110.936" style="enable-background:new 0 0 110.936 110.936;"
	 xml:space="preserve">
<g>
	<g>
		<path d="M33.273,69.448H20.826c-0.688,0-1.245,0.557-1.245,1.245v38.998c0,0.688,0.557,1.244,1.245,1.244h12.446
			c0.687,0,1.245-0.557,1.245-1.244V70.693C34.517,70.004,33.96,69.448,33.273,69.448z M32.028,108.446h-9.957v-36.51h9.957V108.446
			z"/>
		<path d="M52.357,55.342H39.91c-0.688,0-1.245,0.558-1.245,1.245v53.104c0,0.688,0.557,1.244,1.245,1.244h12.446
			c0.688,0,1.245-0.557,1.245-1.244V56.586C53.601,55.9,53.044,55.342,52.357,55.342z M51.112,108.446h-9.957V57.832h9.957V108.446z
			"/>
		<path d="M72.823,43.172H60.377c-0.688,0-1.245,0.558-1.245,1.245v65.273c0,0.688,0.558,1.244,1.245,1.244h12.445
			c0.688,0,1.245-0.557,1.245-1.244V44.417C74.068,43.73,73.511,43.172,72.823,43.172z M71.579,108.446h-9.957V45.662h9.957V108.446
			z"/>
		<path d="M94.397,27.13H81.95c-0.687,0-1.245,0.557-1.245,1.245v81.315c0,0.688,0.559,1.244,1.245,1.244h12.446
			c0.688,0,1.245-0.557,1.245-1.244V28.375C95.641,27.687,95.085,27.13,94.397,27.13z M93.152,108.446h-9.957V29.62h9.957V108.446z"
			/>
		<path d="M86.638,4.658l4.905,10.352c0.213,0.449,0.659,0.712,1.125,0.712c0.179,0,0.359-0.039,0.531-0.121
			c0.621-0.294,0.887-1.035,0.593-1.656L87.521,0.707c-0.007-0.016-0.019-0.028-0.026-0.044c-0.007-0.013-0.011-0.028-0.019-0.042
			c-0.012-0.021-0.029-0.038-0.042-0.06c-0.025-0.038-0.051-0.076-0.08-0.111c-0.023-0.029-0.049-0.056-0.074-0.081
			c-0.032-0.032-0.062-0.063-0.098-0.09c-0.029-0.024-0.06-0.044-0.089-0.065c-0.036-0.023-0.071-0.047-0.109-0.066
			c-0.033-0.019-0.065-0.032-0.1-0.047c-0.04-0.017-0.08-0.032-0.121-0.046c-0.034-0.011-0.068-0.019-0.104-0.025
			c-0.043-0.01-0.087-0.019-0.131-0.022C86.494,0.002,86.46,0.001,86.425,0C86.38,0,86.335,0,86.289,0.003
			c-0.035,0.003-0.07,0.009-0.105,0.016c-0.043,0.009-0.086,0.017-0.13,0.029c-0.039,0.011-0.075,0.025-0.113,0.04
			c-0.025,0.01-0.051,0.015-0.076,0.027c-0.015,0.007-0.026,0.018-0.042,0.024c-0.015,0.008-0.029,0.013-0.045,0.021L71.721,8.211
			c-0.596,0.342-0.803,1.104-0.461,1.699c0.229,0.401,0.648,0.626,1.082,0.626c0.209,0,0.422-0.053,0.617-0.165L84.27,3.892
			C76.875,26.711,39.554,50.67,16.192,57.465c-0.66,0.192-1.04,0.883-0.848,1.543c0.158,0.544,0.655,0.897,1.195,0.897
			c0.115,0,0.232-0.017,0.348-0.05C37.359,53.901,78.455,29.963,86.638,4.658z"/>
	</g>
</g>
<g>
</g>
<g>
</g>
<g>
</g>
<g>
</g>
<g>
</g>
<g>
</g>
<g>
</g>
<g>
</g>
<g>
</g>
<g>
</g>
<g>
</g>
<g>
</g>
<g>
</g>
<g>
</g>
<g>
</g>
</svg>
