<svg id="Layer_1" data-name="Layer 1" xmlns="http://www.w3.org/2000/svg" viewBox="0 0 163.66 161.63"><defs><style>.cls-1{fill:#ffc10d;}</style></defs><path class="cls-1" d="M149.68,149.06H15.43a4.66,4.66,0,0,1-4.06-2.34,4.61,4.61,0,0,1,0-4.68L78.49,25.78a4.63,4.63,0,0,1,4.06-2.34h0a4.66,4.66,0,0,1,4.06,2.34L153.73,142a4.68,4.68,0,0,1-4,7ZM82,27.77,14.84,144a.67.67,0,0,0,0,.68.65.65,0,0,0,.59.34H149.68a.65.65,0,0,0,.59-.34.67.67,0,0,0,0-.68L83.15,27.77a.66.66,0,0,0-.59-.34h0a.66.66,0,0,0-.6.34Z"/></svg>