<svg id="Layer_1" data-name="Layer 1" xmlns="http://www.w3.org/2000/svg" viewBox="0 0 284.03 345.62"><defs><style>.cls-1{fill:#00adee;}.cls-2{fill:#72297e;}.cls-3{fill:#de1669;}.cls-4{fill:#ffc10d;}.cls-5{fill:#add376;}.cls-6{fill:#00a69c;}</style></defs><path class="cls-1" d="M176.05,42.37a75.63,75.63,0,0,0-35,2.66,88.86,88.86,0,0,0-28.61,15.73,81.7,81.7,0,0,0-21.09,25,80.59,80.59,0,0,0-8.82,32.64,113.2,113.2,0,0,0,3.6,35.1c2.66,10.31,6.78,20.14,11.19,29.8,3.48,7.63,7.24,15,9.21,23.16a34.42,34.42,0,0,1,.85,4.86,57.91,57.91,0,0,1,.1,8.33,46.35,46.35,0,0,1-2.92,14.3,36.57,36.57,0,0,1-14.62,17.37c-9.07,5.78-19.7,5.76-30,4-3-.53-6.05-1.18-9.05-1.88s-4.47,4.09-1.33,4.82c11,2.54,22.9,4.87,34,1.5a41.56,41.56,0,0,0,21.1-15.53c5.82-8.12,7.93-18.26,7.91-28.11a47,47,0,0,0-1.61-12.5,90.92,90.92,0,0,0-4.31-11.72c-3.73-8.68-8-17.11-11.31-26a121.36,121.36,0,0,1-7.69-33.6A87,87,0,0,1,91.12,99a70.5,70.5,0,0,1,17-27.65c15.16-15.44,36.06-25.62,58-25a68.56,68.56,0,0,1,8.58.78,2.58,2.58,0,0,0,3.08-1.75,2.48,2.48,0,0,0-1.73-3Z"/><path class="cls-2" d="M169.67,76.46c-19.85-.38-39,12.75-44.75,32-3.67,12.26-2.8,25.18,1,37.3s9.87,23,15,34.37c4.46,10,7.77,20.31,8.24,31.3a90.09,90.09,0,0,1-3.7,29.1c-5.39,18.43-16.19,35.23-32.6,45.61A73.51,73.51,0,0,1,85,296.6a76.83,76.83,0,0,1-33.09-2.32c-3-.86-5.94-1.87-8.83-3A2.53,2.53,0,0,0,40,293a2.56,2.56,0,0,0,1.75,3.08,87.13,87.13,0,0,0,35,6.3,78.05,78.05,0,0,0,30.38-7.47,75.72,75.72,0,0,0,23.34-17.05,87.54,87.54,0,0,0,15.88-25.29c7.76-18.44,10.46-39.85,4.79-59.25-6.92-23.67-24.39-44.41-23.62-70.06.3-10.11,3.36-19.89,10.08-27.54A41.89,41.89,0,0,1,162.11,82a40.6,40.6,0,0,1,7.55-.49c3.22,0,3.22-5,0-5Z"/><path class="cls-3" d="M154,117.13a62.48,62.48,0,0,1,10.54-5.74,59.72,59.72,0,0,1,14.3-3.52c9.8-1.26,20,.37,28,6.39a26.45,26.45,0,0,1,8.26,10.17,42.14,42.14,0,0,1,3.81,14.85,26.5,26.5,0,0,1-3.16,14.26A39.47,39.47,0,0,1,206,164.85c-9,7.36-20.33,11.35-31.29,14.59-3.08.91-1.77,5.74,1.33,4.82,10.8-3.2,21.83-7.12,31-13.9,8.93-6.64,16.09-16,16.85-27.4a42.21,42.21,0,0,0-2.69-16.6A33.54,33.54,0,0,0,213,113c-7.79-7.52-19-11-29.71-10.54A65.1,65.1,0,0,0,165,105.89a64.06,64.06,0,0,0-13.52,6.9c-2.71,1.76-.2,6.09,2.51,4.34Z"/><path class="cls-4" d="M212,81.37A58.66,58.66,0,0,1,237,97.83a62.08,62.08,0,0,1,13.54,26,66.78,66.78,0,0,1,.75,30.89,70.23,70.23,0,0,1-14.27,28.91,77.33,77.33,0,0,1-29.16,22.1,2.5,2.5,0,0,0-1.15,2.82c5.43,15.35,11,30.65,16.53,46q9.28,25.59,18.55,51.19,4.32,12,8.59,24a2.58,2.58,0,0,0,3.08,1.75,2.53,2.53,0,0,0,1.75-3.08c-5.43-15.35-11-30.65-16.53-46q-9.28-25.59-18.55-51.19-4.32-12-8.59-24L210.42,210c21.22-9.14,38.51-28.14,44.82-50.45A71.55,71.55,0,0,0,242.91,97.1a63.35,63.35,0,0,0-29.62-20.55c-3-1-4.36,3.8-1.33,4.82Z"/><path class="cls-5" d="M169,216.51c6,16.07,11.36,32.35,16.75,48.61,5.82,17.57,11.54,35.17,17.5,52.69,3,8.69,6,17.36,9.16,26a2.57,2.57,0,0,0,3.08,1.75,2.52,2.52,0,0,0,1.75-3.08c-5.95-16.07-11.36-32.35-16.75-48.61-5.82-17.57-11.54-35.17-17.5-52.69-3-8.69-6-17.36-9.16-26a2.57,2.57,0,0,0-3.08-1.75,2.53,2.53,0,0,0-1.75,3.08Z"/><circle class="cls-6" cx="169.67" cy="78.96" r="5.72"/><circle class="cls-6" cx="175.38" cy="181.87" r="5.72"/><circle class="cls-6" cx="171.39" cy="215.84" r="5.72"/><circle class="cls-6" cx="253.03" cy="329.04" r="5.72"/><circle class="cls-6" cx="50.25" cy="255.84" r="5.72"/></svg>