<svg id="Capa_1" enable-background="new 0 0 512 512" height="512" viewBox="0 0 512 512" width="512" xmlns="http://www.w3.org/2000/svg"><g><g><path d="m289.004 236.906c8.777 5.407 14.826 7.098 22.475 7.561v2.447c0 4.142 3.357 7.499 7.499 7.499s7.499-3.357 7.499-7.499v-3.066c15.317-3.144 24.981-15.442 26.908-27.569 2.368-14.906-5.962-27.818-21.22-32.898-1.87-.623-3.78-1.273-5.688-1.948v-29.273c4.77 1.193 7.603 3.438 7.868 3.656 3.126 2.662 7.822 2.313 10.521-.794 2.716-3.127 2.383-7.863-.744-10.579-.395-.343-6.942-5.894-17.645-7.555v-1.741c0-4.142-3.357-7.499-7.499-7.499s-7.499 3.357-7.499 7.499v2.269c-.879.193-1.767.405-2.674.663-10.401 2.951-18.073 11.44-20.022 22.155-1.726 9.499 1.581 18.635 8.633 23.844 3.593 2.654 8.034 5.087 14.063 7.642v37.724c-5.08-.417-8.743-1.694-14.609-5.307-3.526-2.171-8.146-1.077-10.318 2.452-2.172 3.525-1.074 8.145 2.452 10.317zm17.323-64.893c-2.886-2.133-3.332-6.097-2.786-9.097.657-3.614 3.092-7.937 7.939-9.911v22.163c-1.93-1.013-3.676-2.064-5.153-3.155zm21.101 25.599c11.776 3.919 11.717 12.714 11.145 16.314-.909 5.718-4.994 11.778-12.095 14.38v-31.014c.319.107.625.212.95.32z"/><path d="m478.923.32c-60.579 9.872-84.127 10.002-123.868 22.954-.139.041-.276.087-.414.137-120.432 39.433-170.407 132.819-173.635 136.326l-62.939-.183c-.064 0-.126 0-.19 0-21.69 0-41.761 10.795-53.718 28.902l-60.381 91.431c-8.14 12.324.136 28.841 14.9 29.677l61.9 3.503-11.087 16.927c-6.319 9.648-4.986 22.571 3.17 30.726l1.129 1.129c-10.946 4.415-20.727 9.524-29.328 15.288-.049.033-.1.065-.149.1-9.968 6.699-18.352 14.279-25.045 22.722-19.516 24.617-24.236 55.584-14.027 92.037 2.053 7.328 7.433 12.708 14.762 14.761 12.484 3.497 24.324 5.243 35.487 5.243 21.432-.001 40.364-6.436 56.551-19.268 8.54-6.77 16.196-15.268 22.951-25.387.006-.01.013-.019.02-.029 5.703-8.548 10.762-18.254 15.139-29.106l1.13 1.13c8.181 8.179 21.107 9.467 30.725 3.169l16.928-11.087 3.503 61.901c.834 14.742 17.334 23.05 29.676 14.9l91.431-60.38c18.161-11.994 28.965-32.146 28.902-53.908l-.183-62.94c3.538-3.256 96.865-53.123 136.324-173.63.052-.143.099-.286.142-.43 5.535-16.986 9.704-34.506 12.36-52.42.607-4.096-2.221-7.91-6.319-8.518-4.096-.615-7.91 2.221-8.518 6.319-2.119 14.294-5.254 28.323-9.307 42.014-47.311-23.306-85.94-61.906-109.276-109.276 32.738-9.692 50.771-9.942 113.453-19.898 9.167-1.363 17.087 6.505 15.721 15.721l-5.475 36.928c-.607 4.096 2.221 7.91 6.319 8.518 4.095.61 7.91-2.221 8.518-6.319l5.475-36.928c2.839-19.159-13.593-35.592-32.757-32.756zm-459.397 294.269c-2.166-.122-3.154-1.638-3.478-2.284-.324-.645-.95-2.343.246-4.154l60.381-91.431c9.172-13.89 24.565-22.168 41.202-22.168h.145l53.178.155-77.729 118.675c-.007.011-.014.022-.022.033l-3.384 5.166zm83.197 186.39c-20.639 16.361-47.11 20.174-78.675 11.337-2.23-.625-3.739-2.134-4.364-4.364-8.84-31.566-5.026-58.036 11.337-78.676 3.709-4.679 8.062-9.064 13.012-13.162.928 2.471 2.477 5.166 5.255 7.945 5.417 5.417 10.525 6.173 14.254 6.726 2.782.412 3.934.583 5.846 2.496 1.913 1.914 2.084 3.065 2.496 5.848 1.767 11.93 9.035 19.21 20.981 20.981 2.782.412 3.934.582 5.847 2.497 1.914 1.914 2.085 3.065 2.497 5.848.553 3.729 1.31 8.837 6.728 14.255 2.779 2.779 5.475 4.328 7.947 5.256-4.097 4.95-8.482 9.303-13.161 13.013zm22.533-26.245c-3.304-.514-4.576-.493-6.713-2.63-1.914-1.914-2.085-3.065-2.497-5.848-1.768-11.927-9.035-19.212-20.983-20.983-2.782-.412-3.934-.582-5.847-2.495-1.913-1.914-2.084-3.065-2.496-5.848-1.766-11.928-9.035-19.21-20.981-20.981-2.782-.412-3.934-.583-5.847-2.496-2.136-2.135-2.108-3.36-2.629-6.709 8.236-5.016 17.618-9.457 28.135-13.285l53.142 53.142c-3.827 10.516-8.268 19.897-13.284 28.133zm212.191-60.758c.049 16.692-8.239 32.15-22.168 41.349l-91.431 60.38c-1.809 1.196-3.507.571-4.154.246-.646-.324-2.161-1.311-2.284-3.477l-3.992-70.54 5.162-3.381c.014-.009.028-.018.042-.027l118.671-77.727zm134.846-235.223c-22.152 63.17-64.593 118.001-121.429 155.227l-135.396 88.681-63.717-63.717c-2.928-2.927-7.677-2.927-10.605 0-2.929 2.929-2.929 7.677 0 10.606l61.506 61.506-28.864 18.905c-3.738 2.449-8.744 1.931-11.903-1.227l-78.618-78.619c-3.159-3.159-3.675-8.165-1.228-11.902l18.905-28.864 15.411 15.411c1.464 1.464 3.383 2.196 5.303 2.196s3.838-.732 5.303-2.196c2.929-2.929 2.929-7.677 0-10.606l-17.622-17.622 88.681-135.396c37.226-56.836 92.058-99.278 155.228-121.429 24.967 51.812 67.131 94.028 119.045 119.046z"/><path d="m318.972 285.14c.13 0 .265-.001.394-.001 50.909-.214 91.945-41.586 91.731-92.506-.214-50.665-41.495-91.732-92.112-91.732-.13 0-.265.001-.395.001-50.795.215-91.945 41.713-91.731 92.506.215 50.666 41.496 91.734 92.113 91.732zm-.319-169.239c.112-.001.22-.001.331-.001 42.371 0 76.936 34.384 77.114 76.796.18 42.622-34.168 77.265-76.795 77.445-.112.001-.22.001-.331.001-42.371-.002-76.935-34.384-77.114-76.796-.179-42.525 34.272-77.266 76.795-77.445z"/></g></g></svg>