<svg height="512" viewBox="0 0 64 64" width="512" xmlns="http://www.w3.org/2000/svg"><g id="Communication"><path d="m21 32a11 11 0 1 0 11-11 11.013 11.013 0 0 0 -11 11zm10-8.71v2.982a8.95 8.95 0 0 1 -2.067-.484 5.526 5.526 0 0 1 2.067-2.498zm-3.868 1.61c-.112-.073-.22-.152-.329-.229.218-.156.444-.3.676-.435-.121.207-.237.43-.347.664zm3.868 3.386v2.714h-3.3a15.649 15.649 0 0 1 .538-3.339 10.919 10.919 0 0 0 2.762.625zm0 4.714v2.714a10.919 10.919 0 0 0 -2.767.625 15.649 15.649 0 0 1 -.533-3.339zm0 4.728v2.982a5.526 5.526 0 0 1 -2.067-2.5 8.95 8.95 0 0 1 2.067-.482zm-3.521 2.041c-.232-.135-.458-.279-.676-.435.109-.077.217-.156.329-.229.11.229.226.452.347.664zm5.521.941v-2.982a8.95 8.95 0 0 1 2.067.484 5.526 5.526 0 0 1 -2.067 2.498zm3.868-1.61c.112.073.22.152.329.229-.218.156-.444.3-.676.435.121-.207.237-.43.347-.664zm-3.868-3.386v-2.714h3.305a15.649 15.649 0 0 1 -.538 3.339 10.919 10.919 0 0 0 -2.767-.625zm0-4.714v-2.714a10.919 10.919 0 0 0 2.767-.625 15.649 15.649 0 0 1 .538 3.339zm0-4.728v-2.982a5.526 5.526 0 0 1 2.067 2.5 8.95 8.95 0 0 1 -2.067.482zm3.521-2.041c.232.135.458.279.676.435-.109.077-.217.156-.329.229-.11-.229-.226-.452-.347-.664zm-11.241 1.8a10.987 10.987 0 0 0 1.12.756 17.529 17.529 0 0 0 -.7 4.213h-2.641a8.96 8.96 0 0 1 2.221-4.966zm-2.221 6.969h2.641a17.529 17.529 0 0 0 .7 4.21 10.987 10.987 0 0 0 -1.12.756 8.96 8.96 0 0 1 -2.221-4.966zm15.661 4.966a10.987 10.987 0 0 0 -1.12-.756 17.529 17.529 0 0 0 .7-4.21h2.636a8.96 8.96 0 0 1 -2.216 4.966zm2.221-6.966h-2.636a17.529 17.529 0 0 0 -.7-4.21 10.987 10.987 0 0 0 1.12-.756 8.96 8.96 0 0 1 2.216 4.966z"/><path d="m9 12h2v2h-2z"/><path d="m13 12h2v2h-2z"/><path d="m22 10v-1a7.008 7.008 0 0 0 -7-7h-6a7.008 7.008 0 0 0 -7 7v1a1.033 1.033 0 0 0 .29.71l1.33 1.33a2 2 0 0 0 -1.62 1.96v1a2.006 2.006 0 0 0 2 2h1.08a6.991 6.991 0 0 0 13.84 0h1.08a2.006 2.006 0 0 0 2-2v-1a2 2 0 0 0 -1.62-1.96l1.33-1.33a1.033 1.033 0 0 0 .29-.71zm-17 5h-1v-1h1zm12 1a5 5 0 0 1 -10 0v-5.38l3.12-1.56 6.88 1.72zm3-1h-1v-1h1zm0-5.41-1 1v-.59a1 1 0 0 0 -.76-.97l-8-2a.978.978 0 0 0 -.69.08l-4 2a.988.988 0 0 0 -.55.89v.59l-1-1v-.59a5 5 0 0 1 5-5h6a5 5 0 0 1 5 5z"/><path d="m49 51h2v2h-2z"/><path d="m53 51h2v2h-2z"/><path d="m62 49v-1a7.008 7.008 0 0 0 -7-7h-6a7.008 7.008 0 0 0 -7 7v1a1.033 1.033 0 0 0 .29.71l1.33 1.33a2 2 0 0 0 -1.62 1.96v1a2.006 2.006 0 0 0 2 2h1.08a6.991 6.991 0 0 0 13.84 0h1.08a2.006 2.006 0 0 0 2-2v-1a2 2 0 0 0 -1.62-1.96l1.33-1.33a1.033 1.033 0 0 0 .29-.71zm-17 5h-1v-1h1zm12 1a5 5 0 0 1 -10 0v-5.38l3.12-1.56 6.88 1.72zm3-1h-1v-1h1zm0-5.41-1 1v-.59a1 1 0 0 0 -.76-.97l-8-2a.978.978 0 0 0 -.69.08l-4 2a.988.988 0 0 0 -.55.89v.59l-1-1v-.59a5 5 0 0 1 5-5h6a5 5 0 0 1 5 5z"/><path d="m62 5v-2a1 1 0 0 0 -1-1h-12a7.008 7.008 0 0 0 -7 7 3.009 3.009 0 0 0 3 3h-1a2.006 2.006 0 0 0 -2 2v1a2.006 2.006 0 0 0 2 2h1.08a6.991 6.991 0 0 0 13.84 0h1.08a2.006 2.006 0 0 0 2-2v-1a2.006 2.006 0 0 0 -2-2h-1v-1.28a6.981 6.981 0 0 0 3-5.72zm-17 10h-1v-1h1zm12 1a5 5 0 0 1 -10 0v-5.38l2.81-1.41c-.12.2-.24.37-.35.52a1.589 1.589 0 0 0 -.34 1.74 1.669 1.669 0 0 0 1.37.81 5.32 5.32 0 0 0 4.25-1.61c.18-.2.36-.38.51-.53l1.75.58zm3-2v1h-1v-1zm-1.96-5.04-2.72-.91a1.02 1.02 0 0 0 -.99.2c-.02.02-.52.48-1.06 1.07a3.419 3.419 0 0 1 -1.75.93 4.95 4.95 0 0 0 .42-.92 2.3 2.3 0 0 0 -.05-1.79 1 1 0 0 0 -.89-.54h-1a1 1 0 0 0 -.45.11l-4 2a.988.988 0 0 0 -.55.89 1 1 0 0 1 -1-1 5 5 0 0 1 5-5h11v1a5 5 0 0 1 -1.96 3.96z"/><path d="m53 13h2v2h-2z"/><path d="m49 13h2v2h-2z"/><path d="m22 44v-2a1 1 0 0 0 -1-1h-12a7.008 7.008 0 0 0 -7 7 3.009 3.009 0 0 0 3 3h-1a2.006 2.006 0 0 0 -2 2v1a2.006 2.006 0 0 0 2 2h1.08a6.991 6.991 0 0 0 13.84 0h1.08a2.006 2.006 0 0 0 2-2v-1a2.006 2.006 0 0 0 -2-2h-1v-1.28a6.981 6.981 0 0 0 3-5.72zm-17 10h-1v-1h1zm12 1a5 5 0 0 1 -10 0v-5.38l2.81-1.41c-.12.2-.24.37-.35.52a1.589 1.589 0 0 0 -.34 1.74 1.669 1.669 0 0 0 1.37.81 5.32 5.32 0 0 0 4.25-1.61c.18-.2.36-.38.51-.53l1.75.58zm3-2v1h-1v-1zm-1.96-5.04-2.72-.91a1.02 1.02 0 0 0 -.99.2c-.02.02-.52.48-1.06 1.07a3.419 3.419 0 0 1 -1.75.93 4.95 4.95 0 0 0 .42-.92 2.3 2.3 0 0 0 -.05-1.79 1 1 0 0 0 -.89-.54h-1a1 1 0 0 0 -.45.11l-4 2a.988.988 0 0 0 -.55.89 1 1 0 0 1 -1-1 5 5 0 0 1 5-5h11v1a5 5 0 0 1 -1.96 3.96z"/><path d="m13 52h2v2h-2z"/><path d="m9 52h2v2h-2z"/><path d="m10.189 24.682a23.115 23.115 0 0 0 0 14.636l1.9-.636a21.118 21.118 0 0 1 0-13.364z"/><path d="m24.364 51.568-.728 1.864a23.092 23.092 0 0 0 16.728 0l-.728-1.864a21.161 21.161 0 0 1 -15.272 0z"/><path d="m53.811 39.318a23.115 23.115 0 0 0 0-14.636l-1.9.636a21.118 21.118 0 0 1 0 13.364z"/><path d="m39.636 12.432.728-1.864a23.181 23.181 0 0 0 -16.728 0l.728 1.864a21.161 21.161 0 0 1 15.272 0z"/></g></svg>